<?xml version="1.0" encoding="UTF-8" standalone="no"?>
<!DOCTYPE svg PUBLIC "-//W3C//DTD SVG 1.1//EN"
 "http://www.w3.org/Graphics/SVG/1.1/DTD/svg11.dtd">
<!-- Generated by graphviz version 2.40.1 (20161225.0304)
 -->
<!-- Title: dependencies Pages: 1 -->
<svg width="2719pt" height="428pt"
 viewBox="0.00 0.00 2719.00 428.00" xmlns="http://www.w3.org/2000/svg" xmlns:xlink="http://www.w3.org/1999/xlink">
<g id="graph0" class="graph" transform="scale(1 1) rotate(0) translate(4 424)">
<title>dependencies</title>
<polygon fill="#ffffff" stroke="transparent" points="-4,4 -4,-424 2715,-424 2715,4 -4,4"/>
<text text-anchor="start" x="1334.5091" y="-42.4" font-family="sans-serif" font-weight="bold" font-size="14.00" fill="#000000">Legend</text>
<polygon fill="#ffffb3" stroke="transparent" points="1121.5,-10 1121.5,-30 1141.5,-30 1141.5,-10 1121.5,-10"/>
<text text-anchor="start" x="1145.129" y="-15.4" font-family="sans-serif" font-size="14.00" fill="#000000"> &#160;Declarations</text>
<polygon fill="#8dd3c7" stroke="transparent" points="1234.5,-10 1234.5,-30 1254.5,-30 1254.5,-10 1234.5,-10"/>
<text text-anchor="start" x="1258.2251" y="-15.4" font-family="sans-serif" font-size="14.00" fill="#000000"> &#160;Module</text>
<polygon fill="#80b1d3" stroke="transparent" points="1320.5,-10 1320.5,-30 1340.5,-30 1340.5,-10 1320.5,-10"/>
<text text-anchor="start" x="1344.2812" y="-15.4" font-family="sans-serif" font-size="14.00" fill="#000000"> &#160;Bootstrap</text>
<polygon fill="#fdb462" stroke="transparent" points="1417.5,-10 1417.5,-30 1437.5,-30 1437.5,-10 1417.5,-10"/>
<text text-anchor="start" x="1441.1732" y="-15.4" font-family="sans-serif" font-size="14.00" fill="#000000"> &#160;Providers</text>
<polygon fill="#fb8072" stroke="transparent" points="1513.5,-10 1513.5,-30 1533.5,-30 1533.5,-10 1513.5,-10"/>
<text text-anchor="start" x="1537.2258" y="-15.4" font-family="sans-serif" font-size="14.00" fill="#000000"> &#160;Exports</text>
<g id="clust1" class="cluster">
<title>cluster_AppModule</title>
<polygon fill="none" stroke="#000000" stroke-dasharray="1,5" points="97,-146 97,-412 617,-412 617,-146 97,-146"/>
</g>
<g id="clust2" class="cluster">
<title>cluster_AppModule_declarations</title>
<polygon fill="none" stroke="#000000" points="487,-222 487,-274 609,-274 609,-222 487,-222"/>
</g>
<g id="clust4" class="cluster">
<title>cluster_AppModule_imports</title>
<polygon fill="none" stroke="#000000" points="105,-154 105,-274 479,-274 479,-154 105,-154"/>
</g>
<g id="clust6" class="cluster">
<title>cluster_AppModule_bootstrap</title>
<polygon fill="none" stroke="#000000" points="304,-352 304,-404 428,-404 428,-352 304,-352"/>
</g>
<g id="clust8" class="cluster">
<title>cluster_AppRoutingModule</title>
<polygon fill="none" stroke="#000000" stroke-dasharray="1,5" points="8,-70 8,-138 172,-138 172,-70 8,-70"/>
</g>
<g id="clust10" class="cluster">
<title>cluster_AppRoutingModule_imports</title>
<polygon fill="none" stroke="#000000" points="16,-78 16,-130 164,-130 164,-78 16,-78"/>
</g>
<g id="clust14" class="cluster">
<title>cluster_AuthModule</title>
<polygon fill="none" stroke="#000000" stroke-dasharray="1,5" points="180,-70 180,-138 778,-138 778,-70 180,-70"/>
</g>
<g id="clust15" class="cluster">
<title>cluster_AuthModule_declarations</title>
<polygon fill="none" stroke="#000000" points="188,-78 188,-130 648,-130 648,-78 188,-78"/>
</g>
<g id="clust19" class="cluster">
<title>cluster_AuthModule_imports</title>
<polygon fill="none" stroke="#000000" points="656,-78 656,-130 770,-130 770,-78 656,-78"/>
</g>
<g id="clust29" class="cluster">
<title>cluster_CoreModule</title>
<polygon fill="none" stroke="#000000" stroke-dasharray="1,5" points="1888,-146 1888,-214 2703,-214 2703,-146 1888,-146"/>
</g>
<g id="clust30" class="cluster">
<title>cluster_CoreModule_declarations</title>
<polygon fill="none" stroke="#000000" points="2218,-154 2218,-206 2695,-206 2695,-154 2218,-154"/>
</g>
<g id="clust35" class="cluster">
<title>cluster_CoreModule_exports</title>
<polygon fill="none" stroke="#000000" points="1896,-154 1896,-206 2210,-206 2210,-154 1896,-154"/>
</g>
<g id="clust44" class="cluster">
<title>cluster_SharedModule</title>
<polygon fill="none" stroke="#000000" stroke-dasharray="1,5" points="625,-146 625,-214 767,-214 767,-146 625,-146"/>
</g>
<g id="clust47" class="cluster">
<title>cluster_SharedModule_exports</title>
<polygon fill="none" stroke="#000000" points="633,-154 633,-206 759,-206 759,-154 633,-154"/>
</g>
<g id="clust50" class="cluster">
<title>cluster_WorkoutModule</title>
<polygon fill="none" stroke="#000000" stroke-dasharray="1,5" points="803,-70 803,-206 1880,-206 1880,-70 803,-70"/>
</g>
<g id="clust51" class="cluster">
<title>cluster_WorkoutModule_declarations</title>
<polygon fill="none" stroke="#000000" points="989,-78 989,-130 1872,-130 1872,-78 989,-78"/>
</g>
<g id="clust57" class="cluster">
<title>cluster_WorkoutModule_imports</title>
<polygon fill="none" stroke="#000000" points="811,-78 811,-130 981,-130 981,-78 811,-78"/>
</g>
<!-- AppComponent -->
<g id="node1" class="node">
<title>AppComponent</title>
<polygon fill="#ffffb3" stroke="#000000" points="600.9399,-266 495.0601,-266 495.0601,-230 600.9399,-230 600.9399,-266"/>
<text text-anchor="middle" x="548" y="-243.8" font-family="Times,serif" font-size="14.00" fill="#000000">AppComponent</text>
</g>
<!-- AppModule -->
<g id="node2" class="node">
<title>AppModule</title>
<polygon fill="#8dd3c7" stroke="#000000" points="407.6571,-331 404.6571,-335 383.6571,-335 380.6571,-331 324.3429,-331 324.3429,-295 407.6571,-295 407.6571,-331"/>
<text text-anchor="middle" x="366" y="-308.8" font-family="Times,serif" font-size="14.00" fill="#000000">AppModule</text>
</g>
<!-- AppComponent&#45;&gt;AppModule -->
<g id="edge1" class="edge">
<title>AppComponent&#45;&gt;AppModule</title>
<path fill="none" stroke="#000000" d="M548,-266.1061C548,-285.3391 548,-313 548,-313 548,-313 417.7545,-313 417.7545,-313"/>
<polygon fill="#000000" stroke="#000000" points="417.7545,-309.5001 407.7545,-313 417.7544,-316.5001 417.7545,-309.5001"/>
</g>
<!-- AppComponent  -->
<g id="node7" class="node">
<title>AppComponent </title>
<polygon fill="#80b1d3" stroke="#000000" points="420.439,-396 311.561,-396 311.561,-360 420.439,-360 420.439,-396"/>
<text text-anchor="middle" x="366" y="-373.8" font-family="Times,serif" font-size="14.00" fill="#000000">AppComponent </text>
</g>
<!-- AppModule&#45;&gt;AppComponent  -->
<g id="edge6" class="edge">
<title>AppModule&#45;&gt;AppComponent </title>
<path fill="none" stroke="#000000" stroke-dasharray="1,5" d="M366,-331.1061C366,-331.1061 366,-349.991 366,-349.991"/>
<polygon fill="#000000" stroke="#000000" points="362.5001,-349.9909 366,-359.991 369.5001,-349.991 362.5001,-349.9909"/>
</g>
<!-- AppRoutingModule -->
<g id="node3" class="node">
<title>AppRoutingModule</title>
<polygon fill="#8dd3c7" stroke="#000000" points="241.2744,-198 238.2744,-202 217.2744,-202 214.2744,-198 112.7256,-198 112.7256,-162 241.2744,-162 241.2744,-198"/>
<text text-anchor="middle" x="177" y="-175.8" font-family="Times,serif" font-size="14.00" fill="#000000">AppRoutingModule</text>
</g>
<!-- AppRoutingModule&#45;&gt;AppModule -->
<g id="edge2" class="edge">
<title>AppRoutingModule&#45;&gt;AppModule</title>
<path fill="none" stroke="#000000" d="M155.5376,-198.2142C155.5376,-234.6396 155.5376,-313 155.5376,-313 155.5376,-313 314.1678,-313 314.1678,-313"/>
<polygon fill="#000000" stroke="#000000" points="314.1678,-316.5001 324.1678,-313 314.1677,-309.5001 314.1678,-316.5001"/>
</g>
<!-- CoreModule -->
<g id="node5" class="node">
<title>CoreModule</title>
<polygon fill="#8dd3c7" stroke="#000000" points="471.2619,-266 468.2619,-270 447.2619,-270 444.2619,-266 384.7381,-266 384.7381,-230 471.2619,-230 471.2619,-266"/>
<text text-anchor="middle" x="428" y="-243.8" font-family="Times,serif" font-size="14.00" fill="#000000">CoreModule</text>
</g>
<!-- AppRoutingModule&#45;&gt;CoreModule -->
<g id="edge16" class="edge">
<title>AppRoutingModule&#45;&gt;CoreModule</title>
<path fill="none" stroke="#000000" d="M198.4624,-198.2228C198.4624,-218.3652 198.4624,-248 198.4624,-248 198.4624,-248 374.5559,-248 374.5559,-248"/>
<polygon fill="#000000" stroke="#000000" points="374.5559,-251.5001 384.5559,-248 374.5558,-244.5001 374.5559,-251.5001"/>
</g>
<!-- AuthModule -->
<g id="node4" class="node">
<title>AuthModule</title>
<polygon fill="#8dd3c7" stroke="#000000" points="346.5482,-198 343.5482,-202 322.5482,-202 319.5482,-198 259.4518,-198 259.4518,-162 346.5482,-162 346.5482,-198"/>
<text text-anchor="middle" x="303" y="-175.8" font-family="Times,serif" font-size="14.00" fill="#000000">AuthModule</text>
</g>
<!-- AuthModule&#45;&gt;AppModule -->
<g id="edge3" class="edge">
<title>AuthModule&#45;&gt;AppModule</title>
<path fill="none" stroke="#000000" d="M335.4727,-198.2142C335.4727,-198.2142 335.4727,-284.579 335.4727,-284.579"/>
<polygon fill="#000000" stroke="#000000" points="331.9727,-284.5789 335.4727,-294.579 338.9727,-284.579 331.9727,-284.5789"/>
</g>
<!-- CoreModule&#45;&gt;AppModule -->
<g id="edge4" class="edge">
<title>CoreModule&#45;&gt;AppModule</title>
<path fill="none" stroke="#000000" d="M396.2237,-266.1061C396.2237,-266.1061 396.2237,-284.991 396.2237,-284.991"/>
<polygon fill="#000000" stroke="#000000" points="392.7238,-284.9909 396.2237,-294.991 399.7238,-284.991 392.7238,-284.9909"/>
</g>
<!-- AppRoutingModule  -->
<g id="node16" class="node">
<title>AppRoutingModule </title>
<polygon fill="#fb8072" stroke="#000000" points="2202.2745,-198 2069.7255,-198 2069.7255,-162 2202.2745,-162 2202.2745,-198"/>
<text text-anchor="middle" x="2136" y="-175.8" font-family="Times,serif" font-size="14.00" fill="#000000">AppRoutingModule </text>
</g>
<!-- CoreModule&#45;&gt;AppRoutingModule  -->
<g id="edge18" class="edge">
<title>CoreModule&#45;&gt;AppRoutingModule </title>
<path fill="none" stroke="#000000" stroke-dasharray="5,2" d="M409.4082,-229.5782C409.4082,-220.7209 409.4082,-212 409.4082,-212 409.4082,-212 2136,-212 2136,-212 2136,-212 2136,-208.2434 2136,-208.2434"/>
<polygon fill="#000000" stroke="#000000" points="2139.5001,-208.2434 2136,-198.2434 2132.5001,-208.2434 2139.5001,-208.2434"/>
</g>
<!-- NavigationComponent  -->
<g id="node17" class="node">
<title>NavigationComponent </title>
<polygon fill="#fb8072" stroke="#000000" points="2051.54,-198 1904.46,-198 1904.46,-162 2051.54,-162 2051.54,-198"/>
<text text-anchor="middle" x="1978" y="-175.8" font-family="Times,serif" font-size="14.00" fill="#000000">NavigationComponent </text>
</g>
<!-- CoreModule&#45;&gt;NavigationComponent  -->
<g id="edge19" class="edge">
<title>CoreModule&#45;&gt;NavigationComponent </title>
<path fill="none" stroke="#000000" stroke-dasharray="5,2" d="M397.0137,-229.8726C397.0137,-219.2891 397.0137,-208 397.0137,-208 397.0137,-208 1978,-208 1978,-208 1978,-208 1978,-207.0207 1978,-207.0207"/>
<polygon fill="#000000" stroke="#000000" points="1981.5001,-208.2069 1978,-198.207 1974.5001,-208.207 1981.5001,-208.2069"/>
</g>
<!-- MaterialModule -->
<g id="node6" class="node">
<title>MaterialModule</title>
<polygon fill="#8dd3c7" stroke="#000000" points="471.4706,-198 468.4706,-202 447.4706,-202 444.4706,-198 364.5294,-198 364.5294,-162 471.4706,-162 471.4706,-198"/>
<text text-anchor="middle" x="418" y="-175.8" font-family="Times,serif" font-size="14.00" fill="#000000">MaterialModule</text>
</g>
<!-- MaterialModule&#45;&gt;AppModule -->
<g id="edge5" class="edge">
<title>MaterialModule&#45;&gt;AppModule</title>
<path fill="none" stroke="#000000" d="M374.567,-198.2142C374.567,-198.2142 374.567,-284.579 374.567,-284.579"/>
<polygon fill="#000000" stroke="#000000" points="371.067,-284.5789 374.567,-294.579 378.067,-284.579 371.067,-284.5789"/>
</g>
<!-- SharedModule -->
<g id="node12" class="node">
<title>SharedModule</title>
<polygon fill="#8dd3c7" stroke="#000000" points="762.4231,-122 759.4231,-126 738.4231,-126 735.4231,-122 663.5769,-122 663.5769,-86 762.4231,-86 762.4231,-122"/>
<text text-anchor="middle" x="713" y="-99.8" font-family="Times,serif" font-size="14.00" fill="#000000">SharedModule</text>
</g>
<!-- MaterialModule&#45;&gt;SharedModule -->
<g id="edge20" class="edge">
<title>MaterialModule&#45;&gt;SharedModule</title>
<path fill="none" stroke="#000000" d="M463.9366,-161.8056C463.9366,-153.7218 463.9366,-146 463.9366,-146 463.9366,-146 707.5121,-146 707.5121,-146 707.5121,-146 707.5121,-132.0555 707.5121,-132.0555"/>
<polygon fill="#000000" stroke="#000000" points="711.0122,-132.0555 707.5121,-122.0555 704.0122,-132.0556 711.0122,-132.0555"/>
</g>
<!-- AuthRoutingModule -->
<g id="node8" class="node">
<title>AuthRoutingModule</title>
<polygon fill="#8dd3c7" stroke="#000000" points="156.1652,-122 153.1652,-126 132.1652,-126 129.1652,-122 23.8348,-122 23.8348,-86 156.1652,-86 156.1652,-122"/>
<text text-anchor="middle" x="90" y="-99.8" font-family="Times,serif" font-size="14.00" fill="#000000">AuthRoutingModule</text>
</g>
<!-- AuthRoutingModule&#45;&gt;AppRoutingModule -->
<g id="edge7" class="edge">
<title>AuthRoutingModule&#45;&gt;AppRoutingModule</title>
<path fill="none" stroke="#000000" d="M127.1861,-122.0109C127.1861,-122.0109 127.1861,-151.855 127.1861,-151.855"/>
<polygon fill="#000000" stroke="#000000" points="123.6862,-151.8549 127.1861,-161.855 130.6862,-151.855 123.6862,-151.8549"/>
</g>
<!-- AuthRoutingModule&#45;&gt;AuthModule -->
<g id="edge11" class="edge">
<title>AuthRoutingModule&#45;&gt;AuthModule</title>
<path fill="none" stroke="#000000" d="M141.7592,-122.0511C141.7592,-136.373 141.7592,-154 141.7592,-154 141.7592,-154 280.8151,-154 280.8151,-154 280.8151,-154 280.8151,-154.7942 280.8151,-154.7942"/>
<polygon fill="#000000" stroke="#000000" points="277.3152,-151.9421 280.8151,-161.9421 284.3152,-151.9422 277.3152,-151.9421"/>
</g>
<!-- LoginComponent -->
<g id="node9" class="node">
<title>LoginComponent</title>
<polygon fill="#ffffb3" stroke="#000000" points="456.2758,-122 341.7242,-122 341.7242,-86 456.2758,-86 456.2758,-122"/>
<text text-anchor="middle" x="399" y="-99.8" font-family="Times,serif" font-size="14.00" fill="#000000">LoginComponent</text>
</g>
<!-- LoginComponent&#45;&gt;AuthModule -->
<g id="edge8" class="edge">
<title>LoginComponent&#45;&gt;AuthModule</title>
<path fill="none" stroke="#000000" d="M355.6441,-122.0109C355.6441,-144.4852 355.6441,-180 355.6441,-180 355.6441,-180 354.7748,-180 354.7748,-180"/>
<polygon fill="#000000" stroke="#000000" points="356.951,-176.5001 346.951,-180 356.951,-183.5001 356.951,-176.5001"/>
</g>
<!-- RegisterComponent -->
<g id="node10" class="node">
<title>RegisterComponent</title>
<polygon fill="#ffffb3" stroke="#000000" points="323.9846,-122 196.0154,-122 196.0154,-86 323.9846,-86 323.9846,-122"/>
<text text-anchor="middle" x="260" y="-99.8" font-family="Times,serif" font-size="14.00" fill="#000000">RegisterComponent</text>
</g>
<!-- RegisterComponent&#45;&gt;AuthModule -->
<g id="edge9" class="edge">
<title>RegisterComponent&#45;&gt;AuthModule</title>
<path fill="none" stroke="#000000" d="M302.4037,-122.0109C302.4037,-122.0109 302.4037,-151.855 302.4037,-151.855"/>
<polygon fill="#000000" stroke="#000000" points="298.9038,-151.8549 302.4037,-161.855 305.9038,-151.855 298.9038,-151.8549"/>
</g>
<!-- ResetPasswordComponent -->
<g id="node11" class="node">
<title>ResetPasswordComponent</title>
<polygon fill="#ffffb3" stroke="#000000" points="640.087,-122 473.913,-122 473.913,-86 640.087,-86 640.087,-122"/>
<text text-anchor="middle" x="557" y="-99.8" font-family="Times,serif" font-size="14.00" fill="#000000">ResetPasswordComponent</text>
</g>
<!-- ResetPasswordComponent&#45;&gt;AuthModule -->
<g id="edge10" class="edge">
<title>ResetPasswordComponent&#45;&gt;AuthModule</title>
<path fill="none" stroke="#000000" d="M484.6185,-122.0579C484.6185,-126.4945 484.6185,-130 484.6185,-130 484.6185,-130 329.8656,-130 329.8656,-130 329.8656,-130 329.8656,-151.9489 329.8656,-151.9489"/>
<polygon fill="#000000" stroke="#000000" points="326.3657,-151.9488 329.8656,-161.9489 333.3657,-151.9489 326.3657,-151.9488"/>
</g>
<!-- SharedModule&#45;&gt;AuthModule -->
<g id="edge12" class="edge">
<title>SharedModule&#45;&gt;AuthModule</title>
<path fill="none" stroke="#000000" d="M685.6505,-122.1944C685.6505,-130.2782 685.6505,-138 685.6505,-138 685.6505,-138 335.7389,-138 335.7389,-138 335.7389,-138 335.7389,-151.9445 335.7389,-151.9445"/>
<polygon fill="#000000" stroke="#000000" points="332.239,-151.9444 335.7389,-161.9445 339.239,-151.9445 332.239,-151.9444"/>
</g>
<!-- SharedModule&#45;&gt;CoreModule -->
<g id="edge17" class="edge">
<title>SharedModule&#45;&gt;CoreModule</title>
<path fill="none" stroke="#000000" d="M754.8939,-122.1581C754.8939,-150.7386 754.8939,-203 754.8939,-203 754.8939,-203 421.8027,-203 421.8027,-203 421.8027,-203 421.8027,-219.9561 421.8027,-219.9561"/>
<polygon fill="#000000" stroke="#000000" points="418.3028,-219.956 421.8027,-229.9561 425.3028,-219.9561 418.3028,-219.956"/>
</g>
<!-- MaterialModule  -->
<g id="node18" class="node">
<title>MaterialModule </title>
<polygon fill="#fb8072" stroke="#000000" points="751.4716,-198 640.5284,-198 640.5284,-162 751.4716,-162 751.4716,-198"/>
<text text-anchor="middle" x="696" y="-175.8" font-family="Times,serif" font-size="14.00" fill="#000000">MaterialModule </text>
</g>
<!-- SharedModule&#45;&gt;MaterialModule  -->
<g id="edge21" class="edge">
<title>SharedModule&#45;&gt;MaterialModule </title>
<path fill="none" stroke="#000000" stroke-dasharray="5,2" d="M729.3737,-122.0109C729.3737,-122.0109 729.3737,-151.855 729.3737,-151.855"/>
<polygon fill="#000000" stroke="#000000" points="725.8738,-151.8549 729.3737,-161.855 732.8738,-151.855 725.8738,-151.8549"/>
</g>
<!-- WorkoutModule -->
<g id="node24" class="node">
<title>WorkoutModule</title>
<polygon fill="#8dd3c7" stroke="#000000" points="1279.8161,-198 1276.8161,-202 1255.8161,-202 1252.8161,-198 1170.1839,-198 1170.1839,-162 1279.8161,-162 1279.8161,-198"/>
<text text-anchor="middle" x="1225" y="-175.8" font-family="Times,serif" font-size="14.00" fill="#000000">WorkoutModule</text>
</g>
<!-- SharedModule&#45;&gt;WorkoutModule -->
<g id="edge27" class="edge">
<title>SharedModule&#45;&gt;WorkoutModule</title>
<path fill="none" stroke="#000000" d="M758.5525,-122.0263C758.5525,-146.9773 758.5525,-189 758.5525,-189 758.5525,-189 1160.1209,-189 1160.1209,-189"/>
<polygon fill="#000000" stroke="#000000" points="1160.1209,-192.5001 1170.1209,-189 1160.1209,-185.5001 1160.1209,-192.5001"/>
</g>
<!-- HomeComponent -->
<g id="node13" class="node">
<title>HomeComponent</title>
<polygon fill="#ffffb3" stroke="#000000" points="2503.5451,-198 2388.4549,-198 2388.4549,-162 2503.5451,-162 2503.5451,-198"/>
<text text-anchor="middle" x="2446" y="-175.8" font-family="Times,serif" font-size="14.00" fill="#000000">HomeComponent</text>
</g>
<!-- HomeComponent&#45;&gt;CoreModule -->
<g id="edge13" class="edge">
<title>HomeComponent&#45;&gt;CoreModule</title>
<path fill="none" stroke="#000000" d="M2446,-198.1025C2446,-209.0859 2446,-221 2446,-221 2446,-221 446.5918,-221 446.5918,-221 446.5918,-221 446.5918,-221.8841 446.5918,-221.8841"/>
<polygon fill="#000000" stroke="#000000" points="443.0919,-219.8408 446.5918,-229.8408 450.0919,-219.8409 443.0919,-219.8408"/>
</g>
<!-- NavigationComponent -->
<g id="node14" class="node">
<title>NavigationComponent</title>
<polygon fill="#ffffb3" stroke="#000000" points="2369.5407,-198 2226.4593,-198 2226.4593,-162 2369.5407,-162 2369.5407,-198"/>
<text text-anchor="middle" x="2298" y="-175.8" font-family="Times,serif" font-size="14.00" fill="#000000">NavigationComponent</text>
</g>
<!-- NavigationComponent&#45;&gt;CoreModule -->
<g id="edge14" class="edge">
<title>NavigationComponent&#45;&gt;CoreModule</title>
<path fill="none" stroke="#000000" d="M2298,-198.0664C2298,-207.4587 2298,-217 2298,-217 2298,-217 434.1973,-217 434.1973,-217 434.1973,-217 434.1973,-219.9672 434.1973,-219.9672"/>
<polygon fill="#000000" stroke="#000000" points="430.6974,-219.9671 434.1973,-229.9672 437.6974,-219.9672 430.6974,-219.9671"/>
</g>
<!-- PageNotFoundComponent -->
<g id="node15" class="node">
<title>PageNotFoundComponent</title>
<polygon fill="#ffffb3" stroke="#000000" points="2686.8243,-198 2521.1757,-198 2521.1757,-162 2686.8243,-162 2686.8243,-198"/>
<text text-anchor="middle" x="2604" y="-175.8" font-family="Times,serif" font-size="14.00" fill="#000000">PageNotFoundComponent</text>
</g>
<!-- PageNotFoundComponent&#45;&gt;CoreModule -->
<g id="edge15" class="edge">
<title>PageNotFoundComponent&#45;&gt;CoreModule</title>
<path fill="none" stroke="#000000" d="M2604,-198.1804C2604,-211.0382 2604,-226 2604,-226 2604,-226 458.9863,-226 458.9863,-226 458.9863,-226 458.9863,-226.3832 458.9863,-226.3832"/>
<polygon fill="#000000" stroke="#000000" points="455.4866,-219.832 458.9863,-229.8321 462.4866,-219.8322 455.4866,-219.832"/>
</g>
<!-- NewWorkoutComponent -->
<g id="node19" class="node">
<title>NewWorkoutComponent</title>
<polygon fill="#ffffb3" stroke="#000000" points="1478.5267,-122 1321.4733,-122 1321.4733,-86 1478.5267,-86 1478.5267,-122"/>
<text text-anchor="middle" x="1400" y="-99.8" font-family="Times,serif" font-size="14.00" fill="#000000">NewWorkoutComponent</text>
</g>
<!-- NewWorkoutComponent&#45;&gt;WorkoutModule -->
<g id="edge22" class="edge">
<title>NewWorkoutComponent&#45;&gt;WorkoutModule</title>
<path fill="none" stroke="#000000" d="M1400,-122.308C1400,-142.1455 1400,-171 1400,-171 1400,-171 1289.8909,-171 1289.8909,-171"/>
<polygon fill="#000000" stroke="#000000" points="1289.891,-167.5001 1279.8909,-171 1289.8909,-174.5001 1289.891,-167.5001"/>
</g>
<!-- StopWorkoutComponent -->
<g id="node20" class="node">
<title>StopWorkoutComponent</title>
<polygon fill="#ffffb3" stroke="#000000" points="1303.2716,-122 1146.7284,-122 1146.7284,-86 1303.2716,-86 1303.2716,-122"/>
<text text-anchor="middle" x="1225" y="-99.8" font-family="Times,serif" font-size="14.00" fill="#000000">StopWorkoutComponent</text>
</g>
<!-- StopWorkoutComponent&#45;&gt;WorkoutModule -->
<g id="edge23" class="edge">
<title>StopWorkoutComponent&#45;&gt;WorkoutModule</title>
<path fill="none" stroke="#000000" d="M1225,-122.0109C1225,-122.0109 1225,-151.855 1225,-151.855"/>
<polygon fill="#000000" stroke="#000000" points="1221.5001,-151.8549 1225,-161.855 1228.5001,-151.855 1221.5001,-151.8549"/>
</g>
<!-- WorkoutComponent -->
<g id="node21" class="node">
<title>WorkoutComponent</title>
<polygon fill="#ffffb3" stroke="#000000" points="1128.5982,-122 997.4018,-122 997.4018,-86 1128.5982,-86 1128.5982,-122"/>
<text text-anchor="middle" x="1063" y="-99.8" font-family="Times,serif" font-size="14.00" fill="#000000">WorkoutComponent</text>
</g>
<!-- WorkoutComponent&#45;&gt;WorkoutModule -->
<g id="edge24" class="edge">
<title>WorkoutComponent&#45;&gt;WorkoutModule</title>
<path fill="none" stroke="#000000" d="M1063,-122.308C1063,-142.1455 1063,-171 1063,-171 1063,-171 1160.1542,-171 1160.1542,-171"/>
<polygon fill="#000000" stroke="#000000" points="1160.1542,-174.5001 1170.1542,-171 1160.1542,-167.5001 1160.1542,-174.5001"/>
</g>
<!-- WorkoutInProgressComponent -->
<g id="node22" class="node">
<title>WorkoutInProgressComponent</title>
<polygon fill="#ffffb3" stroke="#000000" points="1864.4664,-122 1673.5336,-122 1673.5336,-86 1864.4664,-86 1864.4664,-122"/>
<text text-anchor="middle" x="1769" y="-99.8" font-family="Times,serif" font-size="14.00" fill="#000000">WorkoutInProgressComponent</text>
</g>
<!-- WorkoutInProgressComponent&#45;&gt;WorkoutModule -->
<g id="edge25" class="edge">
<title>WorkoutInProgressComponent&#45;&gt;WorkoutModule</title>
<path fill="none" stroke="#000000" d="M1769,-122.0263C1769,-146.9773 1769,-189 1769,-189 1769,-189 1289.9032,-189 1289.9032,-189"/>
<polygon fill="#000000" stroke="#000000" points="1289.9032,-185.5001 1279.9032,-189 1289.9032,-192.5001 1289.9032,-185.5001"/>
</g>
<!-- WorkoutLogsComponent -->
<g id="node23" class="node">
<title>WorkoutLogsComponent</title>
<polygon fill="#ffffb3" stroke="#000000" points="1655.5954,-122 1496.4046,-122 1496.4046,-86 1655.5954,-86 1655.5954,-122"/>
<text text-anchor="middle" x="1576" y="-99.8" font-family="Times,serif" font-size="14.00" fill="#000000">WorkoutLogsComponent</text>
</g>
<!-- WorkoutLogsComponent&#45;&gt;WorkoutModule -->
<g id="edge26" class="edge">
<title>WorkoutLogsComponent&#45;&gt;WorkoutModule</title>
<path fill="none" stroke="#000000" d="M1576,-122.0109C1576,-144.4852 1576,-180 1576,-180 1576,-180 1289.8438,-180 1289.8438,-180"/>
<polygon fill="#000000" stroke="#000000" points="1289.8438,-176.5001 1279.8438,-180 1289.8437,-183.5001 1289.8438,-176.5001"/>
</g>
<!-- WorkoutRoutingModule -->
<g id="node25" class="node">
<title>WorkoutRoutingModule</title>
<polygon fill="#8dd3c7" stroke="#000000" points="973.434,-122 970.434,-126 949.434,-126 946.434,-122 818.566,-122 818.566,-86 973.434,-86 973.434,-122"/>
<text text-anchor="middle" x="896" y="-99.8" font-family="Times,serif" font-size="14.00" fill="#000000">WorkoutRoutingModule</text>
</g>
<!-- WorkoutRoutingModule&#45;&gt;WorkoutModule -->
<g id="edge28" class="edge">
<title>WorkoutRoutingModule&#45;&gt;WorkoutModule</title>
<path fill="none" stroke="#000000" d="M896,-122.0109C896,-144.4852 896,-180 896,-180 896,-180 1160.303,-180 1160.303,-180"/>
<polygon fill="#000000" stroke="#000000" points="1160.3031,-183.5001 1170.303,-180 1160.303,-176.5001 1160.3031,-183.5001"/>
</g>
</g>
</svg>
