<?xml version="1.0" encoding="UTF-8" standalone="no"?>
<!DOCTYPE svg PUBLIC "-//W3C//DTD SVG 1.1//EN"
 "http://www.w3.org/Graphics/SVG/1.1/DTD/svg11.dtd">
<!-- Generated by graphviz version 2.40.1 (20161225.0304)
 -->
<!-- Title: dependencies Pages: 1 -->
<svg width="1218pt" height="211pt"
 viewBox="0.00 0.00 1218.00 211.00" xmlns="http://www.w3.org/2000/svg" xmlns:xlink="http://www.w3.org/1999/xlink">
<g id="graph0" class="graph" transform="scale(1 1) rotate(0) translate(4 207)">
<title>dependencies</title>
<polygon fill="#ffffff" stroke="transparent" points="-4,4 -4,-207 1214,-207 1214,4 -4,4"/>
<text text-anchor="start" x="584.0091" y="-42.4" font-family="sans-serif" font-weight="bold" font-size="14.00" fill="#000000">Legend</text>
<polygon fill="#ffffb3" stroke="transparent" points="371,-10 371,-30 391,-30 391,-10 371,-10"/>
<text text-anchor="start" x="394.629" y="-15.4" font-family="sans-serif" font-size="14.00" fill="#000000"> &#160;Declarations</text>
<polygon fill="#8dd3c7" stroke="transparent" points="484,-10 484,-30 504,-30 504,-10 484,-10"/>
<text text-anchor="start" x="507.7251" y="-15.4" font-family="sans-serif" font-size="14.00" fill="#000000"> &#160;Module</text>
<polygon fill="#80b1d3" stroke="transparent" points="570,-10 570,-30 590,-30 590,-10 570,-10"/>
<text text-anchor="start" x="593.7812" y="-15.4" font-family="sans-serif" font-size="14.00" fill="#000000"> &#160;Bootstrap</text>
<polygon fill="#fdb462" stroke="transparent" points="667,-10 667,-30 687,-30 687,-10 667,-10"/>
<text text-anchor="start" x="690.6732" y="-15.4" font-family="sans-serif" font-size="14.00" fill="#000000"> &#160;Providers</text>
<polygon fill="#fb8072" stroke="transparent" points="763,-10 763,-30 783,-30 783,-10 763,-10"/>
<text text-anchor="start" x="786.7258" y="-15.4" font-family="sans-serif" font-size="14.00" fill="#000000"> &#160;Exports</text>
<g id="clust1" class="cluster">
<title>cluster_WorkoutModule</title>
<polygon fill="none" stroke="#000000" stroke-dasharray="1,5" points="8,-70 8,-195 1202,-195 1202,-70 8,-70"/>
</g>
<g id="clust2" class="cluster">
<title>cluster_WorkoutModule_declarations</title>
<polygon fill="none" stroke="#000000" points="310,-78 310,-130 1194,-130 1194,-78 310,-78"/>
</g>
<g id="clust8" class="cluster">
<title>cluster_WorkoutModule_imports</title>
<polygon fill="none" stroke="#000000" points="16,-78 16,-130 302,-130 302,-78 16,-78"/>
</g>
<!-- NewWorkoutComponent -->
<g id="node1" class="node">
<title>NewWorkoutComponent</title>
<polygon fill="#ffffb3" stroke="#000000" points="1185.5267,-122 1028.4733,-122 1028.4733,-86 1185.5267,-86 1185.5267,-122"/>
<text text-anchor="middle" x="1107" y="-99.8" font-family="Times,serif" font-size="14.00" fill="#000000">NewWorkoutComponent</text>
</g>
<!-- WorkoutModule -->
<g id="node6" class="node">
<title>WorkoutModule</title>
<polygon fill="#8dd3c7" stroke="#000000" points="645.8161,-187 642.8161,-191 621.8161,-191 618.8161,-187 536.1839,-187 536.1839,-151 645.8161,-151 645.8161,-187"/>
<text text-anchor="middle" x="591" y="-164.8" font-family="Times,serif" font-size="14.00" fill="#000000">WorkoutModule</text>
</g>
<!-- NewWorkoutComponent&#45;&gt;WorkoutModule -->
<g id="edge1" class="edge">
<title>NewWorkoutComponent&#45;&gt;WorkoutModule</title>
<path fill="none" stroke="#000000" d="M1107,-122.2921C1107,-144.2057 1107,-178 1107,-178 1107,-178 655.7325,-178 655.7325,-178"/>
<polygon fill="#000000" stroke="#000000" points="655.7326,-174.5001 645.7325,-178 655.7325,-181.5001 655.7326,-174.5001"/>
</g>
<!-- StopWorkoutComponent -->
<g id="node2" class="node">
<title>StopWorkoutComponent</title>
<polygon fill="#ffffb3" stroke="#000000" points="1010.2716,-122 853.7284,-122 853.7284,-86 1010.2716,-86 1010.2716,-122"/>
<text text-anchor="middle" x="932" y="-99.8" font-family="Times,serif" font-size="14.00" fill="#000000">StopWorkoutComponent</text>
</g>
<!-- StopWorkoutComponent&#45;&gt;WorkoutModule -->
<g id="edge2" class="edge">
<title>StopWorkoutComponent&#45;&gt;WorkoutModule</title>
<path fill="none" stroke="#000000" d="M932,-122.1061C932,-141.3391 932,-169 932,-169 932,-169 655.7875,-169 655.7875,-169"/>
<polygon fill="#000000" stroke="#000000" points="655.7876,-165.5001 645.7875,-169 655.7875,-172.5001 655.7876,-165.5001"/>
</g>
<!-- WorkoutComponent -->
<g id="node3" class="node">
<title>WorkoutComponent</title>
<polygon fill="#ffffb3" stroke="#000000" points="835.5982,-122 704.4018,-122 704.4018,-86 835.5982,-86 835.5982,-122"/>
<text text-anchor="middle" x="770" y="-99.8" font-family="Times,serif" font-size="14.00" fill="#000000">WorkoutComponent</text>
</g>
<!-- WorkoutComponent&#45;&gt;WorkoutModule -->
<g id="edge3" class="edge">
<title>WorkoutComponent&#45;&gt;WorkoutModule</title>
<path fill="none" stroke="#000000" d="M770,-122.027C770,-138.3976 770,-160 770,-160 770,-160 655.6785,-160 655.6785,-160"/>
<polygon fill="#000000" stroke="#000000" points="655.6786,-156.5001 645.6785,-160 655.6785,-163.5001 655.6786,-156.5001"/>
</g>
<!-- WorkoutInProgressComponent -->
<g id="node4" class="node">
<title>WorkoutInProgressComponent</title>
<polygon fill="#ffffb3" stroke="#000000" points="686.4664,-122 495.5336,-122 495.5336,-86 686.4664,-86 686.4664,-122"/>
<text text-anchor="middle" x="591" y="-99.8" font-family="Times,serif" font-size="14.00" fill="#000000">WorkoutInProgressComponent</text>
</g>
<!-- WorkoutInProgressComponent&#45;&gt;WorkoutModule -->
<g id="edge4" class="edge">
<title>WorkoutInProgressComponent&#45;&gt;WorkoutModule</title>
<path fill="none" stroke="#000000" d="M591,-122.1061C591,-122.1061 591,-140.991 591,-140.991"/>
<polygon fill="#000000" stroke="#000000" points="587.5001,-140.9909 591,-150.991 594.5001,-140.991 587.5001,-140.9909"/>
</g>
<!-- WorkoutLogsComponent -->
<g id="node5" class="node">
<title>WorkoutLogsComponent</title>
<polygon fill="#ffffb3" stroke="#000000" points="477.5954,-122 318.4046,-122 318.4046,-86 477.5954,-86 477.5954,-122"/>
<text text-anchor="middle" x="398" y="-99.8" font-family="Times,serif" font-size="14.00" fill="#000000">WorkoutLogsComponent</text>
</g>
<!-- WorkoutLogsComponent&#45;&gt;WorkoutModule -->
<g id="edge5" class="edge">
<title>WorkoutLogsComponent&#45;&gt;WorkoutModule</title>
<path fill="none" stroke="#000000" d="M398,-122.027C398,-138.3976 398,-160 398,-160 398,-160 526.2102,-160 526.2102,-160"/>
<polygon fill="#000000" stroke="#000000" points="526.2102,-163.5001 536.2102,-160 526.2102,-156.5001 526.2102,-163.5001"/>
</g>
<!-- SharedModule -->
<g id="node7" class="node">
<title>SharedModule</title>
<polygon fill="#8dd3c7" stroke="#000000" points="294.4231,-122 291.4231,-126 270.4231,-126 267.4231,-122 195.5769,-122 195.5769,-86 294.4231,-86 294.4231,-122"/>
<text text-anchor="middle" x="245" y="-99.8" font-family="Times,serif" font-size="14.00" fill="#000000">SharedModule</text>
</g>
<!-- SharedModule&#45;&gt;WorkoutModule -->
<g id="edge6" class="edge">
<title>SharedModule&#45;&gt;WorkoutModule</title>
<path fill="none" stroke="#000000" d="M245,-122.1061C245,-141.3391 245,-169 245,-169 245,-169 526.1753,-169 526.1753,-169"/>
<polygon fill="#000000" stroke="#000000" points="526.1753,-172.5001 536.1753,-169 526.1752,-165.5001 526.1753,-172.5001"/>
</g>
<!-- WorkoutRoutingModule -->
<g id="node8" class="node">
<title>WorkoutRoutingModule</title>
<polygon fill="#8dd3c7" stroke="#000000" points="178.434,-122 175.434,-126 154.434,-126 151.434,-122 23.566,-122 23.566,-86 178.434,-86 178.434,-122"/>
<text text-anchor="middle" x="101" y="-99.8" font-family="Times,serif" font-size="14.00" fill="#000000">WorkoutRoutingModule</text>
</g>
<!-- WorkoutRoutingModule&#45;&gt;WorkoutModule -->
<g id="edge7" class="edge">
<title>WorkoutRoutingModule&#45;&gt;WorkoutModule</title>
<path fill="none" stroke="#000000" d="M101,-122.2921C101,-144.2057 101,-178 101,-178 101,-178 526.2171,-178 526.2171,-178"/>
<polygon fill="#000000" stroke="#000000" points="526.2171,-181.5001 536.2171,-178 526.217,-174.5001 526.2171,-181.5001"/>
</g>
</g>
</svg>
