<?xml version="1.0" encoding="UTF-8" standalone="no"?>
<!DOCTYPE svg PUBLIC "-//W3C//DTD SVG 1.1//EN"
 "http://www.w3.org/Graphics/SVG/1.1/DTD/svg11.dtd">
<!-- Generated by graphviz version 2.40.1 (20161225.0304)
 -->
<!-- Title: dependencies Pages: 1 -->
<svg width="786pt" height="284pt"
 viewBox="0.00 0.00 786.00 284.00" xmlns="http://www.w3.org/2000/svg" xmlns:xlink="http://www.w3.org/1999/xlink">
<g id="graph0" class="graph" transform="scale(1 1) rotate(0) translate(4 280)">
<title>dependencies</title>
<polygon fill="#ffffff" stroke="transparent" points="-4,4 -4,-280 782,-280 782,4 -4,4"/>
<text text-anchor="start" x="368.0091" y="-42.4" font-family="sans-serif" font-weight="bold" font-size="14.00" fill="#000000">Legend</text>
<polygon fill="#ffffb3" stroke="transparent" points="155,-10 155,-30 175,-30 175,-10 155,-10"/>
<text text-anchor="start" x="178.629" y="-15.4" font-family="sans-serif" font-size="14.00" fill="#000000"> &#160;Declarations</text>
<polygon fill="#8dd3c7" stroke="transparent" points="268,-10 268,-30 288,-30 288,-10 268,-10"/>
<text text-anchor="start" x="291.7251" y="-15.4" font-family="sans-serif" font-size="14.00" fill="#000000"> &#160;Module</text>
<polygon fill="#80b1d3" stroke="transparent" points="354,-10 354,-30 374,-30 374,-10 354,-10"/>
<text text-anchor="start" x="377.7812" y="-15.4" font-family="sans-serif" font-size="14.00" fill="#000000"> &#160;Bootstrap</text>
<polygon fill="#fdb462" stroke="transparent" points="451,-10 451,-30 471,-30 471,-10 451,-10"/>
<text text-anchor="start" x="474.6732" y="-15.4" font-family="sans-serif" font-size="14.00" fill="#000000"> &#160;Providers</text>
<polygon fill="#fb8072" stroke="transparent" points="547,-10 547,-30 567,-30 567,-10 547,-10"/>
<text text-anchor="start" x="570.7258" y="-15.4" font-family="sans-serif" font-size="14.00" fill="#000000"> &#160;Exports</text>
<g id="clust1" class="cluster">
<title>cluster_CoreModule</title>
<polygon fill="none" stroke="#000000" stroke-dasharray="1,5" points="8,-70 8,-268 770,-268 770,-70 8,-70"/>
</g>
<g id="clust2" class="cluster">
<title>cluster_CoreModule_declarations</title>
<polygon fill="none" stroke="#000000" points="285,-78 285,-130 762,-130 762,-78 285,-78"/>
</g>
<g id="clust6" class="cluster">
<title>cluster_CoreModule_imports</title>
<polygon fill="none" stroke="#000000" points="16,-78 16,-130 277,-130 277,-78 16,-78"/>
</g>
<g id="clust7" class="cluster">
<title>cluster_CoreModule_exports</title>
<polygon fill="none" stroke="#000000" points="215,-208 215,-260 529,-260 529,-208 215,-208"/>
</g>
<!-- HomeComponent -->
<g id="node1" class="node">
<title>HomeComponent</title>
<polygon fill="#ffffb3" stroke="#000000" points="753.5451,-122 638.4549,-122 638.4549,-86 753.5451,-86 753.5451,-122"/>
<text text-anchor="middle" x="696" y="-99.8" font-family="Times,serif" font-size="14.00" fill="#000000">HomeComponent</text>
</g>
<!-- CoreModule -->
<g id="node4" class="node">
<title>CoreModule</title>
<polygon fill="#8dd3c7" stroke="#000000" points="419.2619,-187 416.2619,-191 395.2619,-191 392.2619,-187 332.7381,-187 332.7381,-151 419.2619,-151 419.2619,-187"/>
<text text-anchor="middle" x="376" y="-164.8" font-family="Times,serif" font-size="14.00" fill="#000000">CoreModule</text>
</g>
<!-- HomeComponent&#45;&gt;CoreModule -->
<g id="edge1" class="edge">
<title>HomeComponent&#45;&gt;CoreModule</title>
<path fill="none" stroke="#000000" d="M696,-122.2843C696,-143.3211 696,-175 696,-175 696,-175 429.4897,-175 429.4897,-175"/>
<polygon fill="#000000" stroke="#000000" points="429.4897,-171.5001 419.4897,-175 429.4896,-178.5001 429.4897,-171.5001"/>
</g>
<!-- NavigationComponent -->
<g id="node2" class="node">
<title>NavigationComponent</title>
<polygon fill="#ffffb3" stroke="#000000" points="619.5407,-122 476.4593,-122 476.4593,-86 619.5407,-86 619.5407,-122"/>
<text text-anchor="middle" x="548" y="-99.8" font-family="Times,serif" font-size="14.00" fill="#000000">NavigationComponent</text>
</g>
<!-- NavigationComponent&#45;&gt;CoreModule -->
<g id="edge2" class="edge">
<title>NavigationComponent&#45;&gt;CoreModule</title>
<path fill="none" stroke="#000000" d="M498.6836,-122.0225C498.6836,-139.3734 498.6836,-163 498.6836,-163 498.6836,-163 429.5991,-163 429.5991,-163"/>
<polygon fill="#000000" stroke="#000000" points="429.5991,-159.5001 419.5991,-163 429.599,-166.5001 429.5991,-159.5001"/>
</g>
<!-- PageNotFoundComponent -->
<g id="node3" class="node">
<title>PageNotFoundComponent</title>
<polygon fill="#ffffb3" stroke="#000000" points="458.8243,-122 293.1757,-122 293.1757,-86 458.8243,-86 458.8243,-122"/>
<text text-anchor="middle" x="376" y="-99.8" font-family="Times,serif" font-size="14.00" fill="#000000">PageNotFoundComponent</text>
</g>
<!-- PageNotFoundComponent&#45;&gt;CoreModule -->
<g id="edge3" class="edge">
<title>PageNotFoundComponent&#45;&gt;CoreModule</title>
<path fill="none" stroke="#000000" d="M376,-122.1061C376,-122.1061 376,-140.991 376,-140.991"/>
<polygon fill="#000000" stroke="#000000" points="372.5001,-140.9909 376,-150.991 379.5001,-140.991 372.5001,-140.9909"/>
</g>
<!-- AppRoutingModule  -->
<g id="node7" class="node">
<title>AppRoutingModule </title>
<polygon fill="#fb8072" stroke="#000000" points="521.2745,-252 388.7255,-252 388.7255,-216 521.2745,-216 521.2745,-252"/>
<text text-anchor="middle" x="455" y="-229.8" font-family="Times,serif" font-size="14.00" fill="#000000">AppRoutingModule </text>
</g>
<!-- CoreModule&#45;&gt;AppRoutingModule  -->
<g id="edge6" class="edge">
<title>CoreModule&#45;&gt;AppRoutingModule </title>
<path fill="none" stroke="#000000" stroke-dasharray="5,2" d="M404.1219,-187.1061C404.1219,-187.1061 404.1219,-205.991 404.1219,-205.991"/>
<polygon fill="#000000" stroke="#000000" points="400.6219,-205.9909 404.1219,-215.991 407.6219,-205.991 400.6219,-205.9909"/>
</g>
<!-- NavigationComponent  -->
<g id="node8" class="node">
<title>NavigationComponent </title>
<polygon fill="#fb8072" stroke="#000000" points="370.54,-252 223.46,-252 223.46,-216 370.54,-216 370.54,-252"/>
<text text-anchor="middle" x="297" y="-229.8" font-family="Times,serif" font-size="14.00" fill="#000000">NavigationComponent </text>
</g>
<!-- CoreModule&#45;&gt;NavigationComponent  -->
<g id="edge7" class="edge">
<title>CoreModule&#45;&gt;NavigationComponent </title>
<path fill="none" stroke="#000000" stroke-dasharray="5,2" d="M351.5696,-187.1061C351.5696,-187.1061 351.5696,-205.991 351.5696,-205.991"/>
<polygon fill="#000000" stroke="#000000" points="348.0697,-205.9909 351.5696,-215.991 355.0697,-205.991 348.0697,-205.9909"/>
</g>
<!-- AppRoutingModule -->
<g id="node5" class="node">
<title>AppRoutingModule</title>
<polygon fill="#8dd3c7" stroke="#000000" points="269.2744,-122 266.2744,-126 245.2744,-126 242.2744,-122 140.7256,-122 140.7256,-86 269.2744,-86 269.2744,-122"/>
<text text-anchor="middle" x="205" y="-99.8" font-family="Times,serif" font-size="14.00" fill="#000000">AppRoutingModule</text>
</g>
<!-- AppRoutingModule&#45;&gt;CoreModule -->
<g id="edge4" class="edge">
<title>AppRoutingModule&#45;&gt;CoreModule</title>
<path fill="none" stroke="#000000" d="M246.4336,-122.0225C246.4336,-139.3734 246.4336,-163 246.4336,-163 246.4336,-163 322.4958,-163 322.4958,-163"/>
<polygon fill="#000000" stroke="#000000" points="322.4958,-166.5001 332.4958,-163 322.4958,-159.5001 322.4958,-166.5001"/>
</g>
<!-- SharedModule -->
<g id="node6" class="node">
<title>SharedModule</title>
<polygon fill="#8dd3c7" stroke="#000000" points="122.4231,-122 119.4231,-126 98.4231,-126 95.4231,-122 23.5769,-122 23.5769,-86 122.4231,-86 122.4231,-122"/>
<text text-anchor="middle" x="73" y="-99.8" font-family="Times,serif" font-size="14.00" fill="#000000">SharedModule</text>
</g>
<!-- SharedModule&#45;&gt;CoreModule -->
<g id="edge5" class="edge">
<title>SharedModule&#45;&gt;CoreModule</title>
<path fill="none" stroke="#000000" d="M73,-122.2843C73,-143.3211 73,-175 73,-175 73,-175 322.5875,-175 322.5875,-175"/>
<polygon fill="#000000" stroke="#000000" points="322.5875,-178.5001 332.5875,-175 322.5875,-171.5001 322.5875,-178.5001"/>
</g>
</g>
</svg>
